<svg xmlns="http://www.w3.org/2000/svg" width="300" height="300" viewBox="0 0 300 300" version="1.1">
	<path d="M 130.500 0.628 C 105.415 4.386, 79.130 15.122, 59.966 29.440 C 48.906 37.702, 33.003 54.294, 25.858 65.026 C 15.089 81.199, 6.439 101.450, 2.364 120.027 C -0.312 132.227, -0.312 167.773, 2.364 179.973 C 6.439 198.550, 15.089 218.801, 25.858 234.974 C 33.003 245.706, 48.906 262.298, 59.966 270.560 C 75.798 282.388, 99.761 293.191, 120.027 297.636 C 132.227 300.312, 167.773 300.312, 179.973 297.636 C 198.550 293.561, 218.801 284.911, 234.974 274.142 C 245.679 267.015, 262.270 251.123, 270.583 240.034 C 283.157 223.260, 295.197 195.369, 298.009 176.500 C 298.664 172.100, 299.606 167.719, 300.100 166.764 C 301.373 164.307, 301.278 131.710, 300 132.500 C 299.412 132.864, 298.991 131.756, 298.978 129.809 C 298.911 119.483, 291.625 96.948, 282.874 80 C 275.186 65.110, 266.679 53.829, 253.817 41.466 C 238.094 26.353, 220.377 15.450, 199.500 8.036 C 182.643 2.050, 175.434 0.871, 153.500 0.509 C 142.500 0.327, 132.150 0.381, 130.500 0.628 M 124.127 18.044 C 76.535 27.565, 38.013 61.391, 22.364 107.400 C 13.778 132.645, 13.778 167.355, 22.364 192.600 C 35.962 232.581, 67.419 264.038, 107.400 277.636 C 132.645 286.222, 167.355 286.222, 192.600 277.636 C 232.581 264.038, 264.038 232.581, 277.636 192.600 C 286.222 167.355, 286.222 132.645, 277.636 107.400 C 261.893 61.115, 223.102 27.232, 175.290 18.005 C 161.405 15.326, 137.623 15.344, 124.127 18.044 M 127.650 31.496 C 120.642 32.943, 115.618 34.340, 110.750 36.195 L 108 37.243 108 57.621 L 108 78 105 78 L 102 78 102 59 C 102 48.550, 101.731 40, 101.403 40 C 99.402 40, 84.169 48.980, 76.901 54.443 C 55.408 70.599, 40.002 94.112, 33.022 121.410 C 31.910 125.760, 31 129.923, 31 130.660 C 31 131.757, 37.987 132, 69.500 132 L 108 132 108 135 L 108 138 69.559 138 C 45.056 138, 30.894 138.362, 30.501 138.998 C 30.162 139.547, 29.903 145.309, 29.926 151.802 C 29.994 171.163, 33.951 187.147, 43.095 205 C 54.877 228.005, 72.817 245.795, 96 257.464 C 113.864 266.455, 129.134 270, 150 270 C 171.349 270, 186.454 266.404, 205 256.905 C 228.005 245.123, 245.795 227.183, 257.464 204 C 266.512 186.022, 270.217 170.051, 269.782 150.902 L 269.500 138.500 230.750 138.238 L 192 137.977 192 134.988 L 192 132 230.500 132 C 262.013 132, 269 131.757, 269 130.660 C 269 129.923, 268.090 125.760, 266.978 121.410 C 259.998 94.112, 244.592 70.599, 223.099 54.443 C 215.831 48.980, 200.598 40, 198.597 40 C 198.269 40, 198 48.550, 198 59 L 198 78 195 78 L 192 78 192 57.621 L 192 37.243 189.250 36.125 C 187.738 35.510, 182.900 34.043, 178.500 32.864 C 168.117 30.083, 138.368 29.283, 127.650 31.496 M 0.411 150 C 0.411 159.625, 0.561 163.563, 0.745 158.750 C 0.928 153.937, 0.928 146.062, 0.745 141.250 C 0.561 136.438, 0.411 140.375, 0.411 150 M 102 201 L 102 204 150 204 L 198 204 198 201 L 198 198 150 198 L 102 198 102 201" stroke="none" fill="black" fill-rule="evenodd"/>
</svg>